# xmcd
#
# Track frame offsets:
#	150
#	14280
#	33717
#	49523
#	65770
#	85858
#	102084
#	114452
#	133351
#	146703
#
# Disc length: 2355 seconds
# Revision: 1
# Processed by: cddbd v1.5.2PL0 Copyright (c) Steve Scherf et al.
# Submitted via: dBpowerAMP V12.0
#
DISCID=8d09310a
DTITLE=Newtown - Time Machine
DYEAR=2013
DGENRE=Country
TTITLE0=All I Was to You
TTITLE1=Dublin Blues
TTITLE2=Rounder
TTITLE3=All My Tears (Be Washed Away)
TTITLE4=Thin Red Line
TTITLE5=The Widow's Ghost
TTITLE6=Goodbye Mary Jane
TTITLE7=Floating Bridge
TTITLE8=Elmer T
TTITLE9=A Train Robbery
EXTD=
EXTT0=
EXTT1=
EXTT2=
EXTT3=
EXTT4=
EXTT5=
EXTT6=
EXTT7=
EXTT8=
EXTT9=
PLAYORDER=
